<svg width="159" height="160" viewBox="0 0 159 160" fill="none" xmlns="http://www.w3.org/2000/svg">
<path fill-rule="evenodd" clip-rule="evenodd" d="M75.2923 0.86676C70.6823 2.72676 69.9353 5.38876 69.9353 19.9628C69.9353 32.1188 70.1543 33.8838 71.9473 36.1628C75.9373 41.2348 84.5413 40.4708 87.4823 34.7838C88.2813 33.2388 88.9353 29.4268 88.9353 26.3128V20.6518L92.6853 21.3438C98.5693 22.4288 109.376 27.2948 114.885 31.3378C126.044 39.5298 134.863 52.6818 138.042 65.8748C141.075 78.4588 138.994 94.9888 132.754 107.875C128.355 116.961 116.834 128.345 107.189 133.137C76.7923 148.238 40.2933 136.698 25.8673 107.426C21.5223 98.6108 18.9703 88.4138 18.9703 79.8748C18.9703 66.6448 24.9213 50.5778 33.2843 41.2298C41.1943 32.3878 41.8773 28.6168 36.5353 23.2748C30.8973 17.6368 26.0563 19.1588 17.9263 29.1288C11.3363 37.2108 4.46129 51.1508 1.79629 61.8378C0.0252885 68.9368 -0.237712 72.3208 0.163288 82.8378C0.571288 93.5228 1.11529 96.7778 3.84829 104.875C11.0213 126.132 25.6403 142.668 45.4353 151.917C81.6923 168.857 124.05 156.718 146.053 123.082C154.848 109.637 158.355 97.3188 158.355 79.8748C158.355 62.4308 154.848 50.1128 146.053 36.6678C133.638 17.6888 114.757 5.29576 92.2873 1.37676C82.7103 -0.29324 78.4803 -0.42024 75.2923 0.86676ZM49.0083 50.5098C47.8683 51.9588 46.9353 54.0628 46.9353 55.1848C46.9353 56.4738 52.3503 62.6828 61.6423 72.0498C77.1743 87.7068 78.8573 88.7188 83.7123 85.3178C85.3353 84.1818 85.9353 82.7528 85.9353 80.0238C85.9353 76.5408 84.9553 75.3138 71.6083 62.0798C59.3663 49.9428 56.8293 47.8748 54.1803 47.8748C52.0223 47.8748 50.4503 48.6758 49.0083 50.5098Z" fill="black"/>
</svg>
